# xmcd CD database file
#
# Track frame offsets:
#	150
#	14197
#	27327
#	41650
#	72610
#	85150
#	108810
#	122117
#	137022
#	155417
#	170625
#	186967
#	202095
#	223040
#	240887
#	259015
#	271115
#	294687
#	311117
#	332210
#
# Disc length: 4597 seconds
#
# Revision: 0
# Processed by: cddbd v1.4PL0 Copyright (c) Steve Scherf et al.
# Submitted via: CDex 1.50Beta7
#
DISCID=3311f314
DTITLE=Jacques Gauthe and His Creole Rice Yerba Buena Jazz Band - Creole Jazz
DYEAR=1993
DGENRE=Jazz
TTITLE0=Creole Jazz
TTITLE1=King Chanticleer
TTITLE2=St. Germain Dance
TTITLE3=Mean Blues
TTITLE4=Custom House Up and Down
TTITLE5=Aggravatin' Papa
TTITLE6=Auntie Skinner's Chicken Dinner
TTITLE7=Mouchete Rag
TTITLE8=That Thing Called Love
TTITLE9='Tain't Nobody's Biz Ness If I Do
TTITLE10=More Time Papa
TTITLE11=Frotti-Frotta
TTITLE12=Silver Dollar
TTITLE13=New Orleans Stomp
TTITLE14=Oh By Jingo!
TTITLE15=Where Did You Stay Last Night?
TTITLE16=Big Lip Blues
TTITLE17=Roll Jordan Roll
TTITLE18=Kiss Me Sweet
TTITLE19=She's Cryin' For Me
EXTD=YEAR: 1993
EXTT0=
EXTT1=
EXTT2=
EXTT3=
EXTT4=
EXTT5=
EXTT6=
EXTT7=
EXTT8=
EXTT9=
EXTT10=
EXTT11=
EXTT12=
EXTT13=
EXTT14=
EXTT15=
EXTT16=
EXTT17=
EXTT18=
EXTT19=
PLAYORDER=
